<svg class="icon" viewBox="0 0 1024 1024" xmlns="http://www.w3.org/2000/svg" width="200" height="200"><defs><style/></defs><path d="M684.55 347.913H339.744c-26.82 0-48.645-21.82-48.645-48.643V171.228c0-26.821 21.823-48.64 48.645-48.64h58.815c7.633-55.864 55.662-99.046 113.587-99.046 57.926 0 105.956 43.182 113.588 99.046h58.815c26.82 0 48.642 21.819 48.642 48.64V299.27c0 26.823-21.823 48.643-48.643 48.643zM339.744 169.676c-.856 0-1.555.696-1.555 1.553V299.27c0 .858.699 1.554 1.555 1.554H684.55c.857 0 1.556-.696 1.556-1.554V171.228c0-.857-.7-1.553-1.556-1.553H577.21l2.218-25.576c.185-2.176.277-4.11.277-5.912 0-37.25-30.306-67.557-67.557-67.557-37.25 0-67.557 30.307-67.557 67.557 0 1.802.091 3.736.278 5.912l2.215 25.576H339.745zM312.19 762.742h398.75v47.088H312.19v-47.088zm0-150.095h398.75v47.09H312.19v-47.09zm0-150.094h398.75v47.09H312.19v-47.09zM816.403 967.79H205.388c-32.551 0-59.034-26.484-59.034-59.034V271.39c0-32.552 26.484-59.035 59.034-59.035h83.7v-40.617c0-26.913 21.898-48.807 48.812-48.807h59.017c7.659-56.057 55.853-99.388 113.978-99.388 58.127 0 106.32 43.331 113.98 99.388h59.017c26.913 0 48.81 21.894 48.81 48.807v40.617h83.701c32.552 0 59.036 26.484 59.036 59.035v637.367c0 32.55-26.485 59.034-59.036 59.034zM205.388 259.606c-6.498 0-11.783 5.286-11.783 11.784v637.367c0 6.498 5.285 11.784 11.783 11.784h611.015c6.5 0 11.787-5.286 11.787-11.784V271.39c0-6.498-5.288-11.784-11.787-11.784H685.452v-87.869c0-.858-.701-1.557-1.56-1.557H576.178l2.23-25.665c.185-2.181.277-4.122.277-5.932 0-37.38-30.411-67.79-67.79-67.79-37.377 0-67.789 30.41-67.789 67.79 0 1.81.091 3.75.279 5.932l2.226 25.665h-107.71c-.86 0-1.561.699-1.561 1.557v87.869H205.388z" fill="#5AA9CD"/></svg>