<svg class="icon" viewBox="0 0 1024 1024" xmlns="http://www.w3.org/2000/svg" width="200" height="200"><defs><style/></defs><path d="M445.046 681.354V362.338c0-15.753-11.815-31.507-31.508-31.507s-27.569 15.754-27.569 31.507v319.016c0 15.754 11.816 31.508 31.508 31.508s27.57-15.754 27.57-31.508zm212.677 0V362.338c0-15.753-11.815-31.507-31.508-31.507s-31.507 11.815-31.507 31.507v319.016c0 15.754 11.815 31.508 31.507 31.508s31.508-15.754 31.508-31.508z" fill="#8a8a8a"/><path d="M815.262 334.77c-15.754 0-31.508 11.815-31.508 31.507v448.985c0 35.446-27.57 63.015-63.016 63.015H319.015c-35.446 0-63.015-27.57-63.015-63.015V362.338c0-15.753-11.815-31.507-31.508-31.507s-27.569 15.754-27.569 31.507v448.985c0 66.954 55.139 122.092 122.092 122.092h405.662c66.954 0 122.092-55.138 122.092-122.092V362.338c0-15.753-11.815-27.569-31.507-27.569zm118.153-122.093H760.123c-19.692 0-35.446-7.877-47.261-23.63l-43.324-51.2c-23.63-27.57-59.076-43.324-94.523-43.324H464.738c-35.446 0-70.892 15.754-94.523 43.323l-39.384 55.139c-11.816 11.815-31.508 19.692-47.262 19.692H106.34c-15.754 0-27.57 15.754-27.57 31.508s11.816 31.507 31.508 31.507h827.077c15.754 0 31.508-11.815 31.508-31.507s-19.693-31.508-35.447-31.508zm-547.446 0l31.508-35.446c11.815-15.754 27.57-23.631 47.261-23.631h110.277c19.693 0 35.447 7.877 47.262 23.63l31.508 35.447H385.969z" fill="#8a8a8a"/></svg>