<?xml version="1.0" standalone="no"?><!DOCTYPE svg PUBLIC "-//W3C//DTD SVG 1.1//EN" "http://www.w3.org/Graphics/SVG/1.1/DTD/svg11.dtd"><svg t="1558419980749" class="icon" style="" viewBox="0 0 1024 1024" version="1.1" xmlns="http://www.w3.org/2000/svg" p-id="7306" xmlns:xlink="http://www.w3.org/1999/xlink" width="64" height="64"><defs><style type="text/css"></style></defs><path d="M930.504348 91.269565c-2.226087-4.452174-6.678261-6.678261-13.356522-6.678261l-186.991304 0c-8.904348 0-17.808696 8.904348-17.808696 17.808696L712.347826 111.304348c0 8.904348 8.904348 17.808696 17.808696 17.808696l129.113043 0-184.765217 184.765217c0 0-2.226087 2.226087-2.226087 2.226087-64.556522-60.104348-149.147826-97.947826-242.643478-97.947826-195.895652 0-356.173913 160.278261-356.173913 356.173913 0 195.895652 160.278261 356.173913 356.173913 356.173913s356.173913-160.278261 356.173913-356.173913c0-86.817391-31.165217-166.956522-82.365217-229.286957 2.226087 0 2.226087-2.226087 4.452174-2.226087l184.765217-184.765217 0 129.113043c0 8.904348 8.904348 17.808696 17.808696 17.808696l8.904348 0c8.904348 0 17.808696-8.904348 17.808696-17.808696L937.182609 104.626087C937.182609 97.947826 934.956522 93.495652 930.504348 91.269565zM431.86087 888.208696c-171.408696 0-311.652174-140.243478-311.652174-311.652174s140.243478-311.652174 311.652174-311.652174 311.652174 140.243478 311.652174 311.652174S603.269565 888.208696 431.86087 888.208696z" p-id="7307" fill="#ffffff"></path></svg>