<?xml version="1.0" standalone="no"?><!DOCTYPE svg PUBLIC "-//W3C//DTD SVG 1.1//EN" "http://www.w3.org/Graphics/SVG/1.1/DTD/svg11.dtd"><svg t="1566545502809" class="icon" viewBox="0 0 1024 1024" version="1.1" xmlns="http://www.w3.org/2000/svg" p-id="9835" xmlns:xlink="http://www.w3.org/1999/xlink" width="64" height="64"><defs><style type="text/css"></style></defs><path d="M512.268258 130.418417c-210.405363 0-381.581583 171.175196-381.581583 381.581583 0 210.405363 171.17622 381.580559 381.581583 381.580559s381.581583-171.17622 381.581583-381.580559c-0.001024-210.405363-171.17622-381.581583-381.581583-381.581583z m0 727.389636c-190.678164 0-345.808053-155.128866-345.808054-345.808053s155.128866-345.808053 345.808054-345.808053 345.808053 155.128866 345.808053 345.808053c0 190.678164-155.129889 345.808053-345.808053 345.808053zM652.381845 630.389812c6.984946 6.986993 6.984946 18.310141 0 25.297135a17.840178 17.840178 0 0 1-12.649079 5.238197c-4.576767 0-9.155583-1.746748-12.649079-5.238197L507.353608 535.955845 384.126962 659.182492a17.840178 17.840178 0 0 1-12.64908 5.238197c-4.576767 0-9.155583-1.746748-12.649079-5.238197-6.984946-6.986993-6.984946-18.310141 0-25.297135l123.226647-123.226647-114.671061-114.673108c-6.984946-6.986993-6.984946-18.310141 0-25.297135 6.986993-6.981874 18.310141-6.981874 25.297135 0l114.672084 114.672085 116.358424-116.358424c6.986993-6.981874 18.310141-6.981874 25.297135 0 6.984946 6.986993 6.984946 18.310141 0 25.297134L532.651767 510.65871 652.381845 630.389812z" fill="#707070" p-id="9836"></path></svg>