<?xml version="1.0" standalone="no"?><!DOCTYPE svg PUBLIC "-//W3C//DTD SVG 1.1//EN" "http://www.w3.org/Graphics/SVG/1.1/DTD/svg11.dtd"><svg t="1568025684066" class="icon" viewBox="0 0 1024 1024" version="1.1" xmlns="http://www.w3.org/2000/svg" p-id="7944" xmlns:xlink="http://www.w3.org/1999/xlink" width="200" height="200"><defs><style type="text/css"></style></defs><path d="M510.806825 64.759933c-247.526513 0-448.185602 200.659089-448.185602 448.185602s200.659089 448.185602 448.185602 448.185602S958.99345 760.472048 958.99345 512.945535 758.333338 64.759933 510.806825 64.759933zM510.891759 939.64273c-233.962589 0-423.627277-189.664687-423.627277-423.627277S276.92917 92.387154 510.891759 92.387154 934.520059 282.051841 934.520059 516.015454 744.855372 939.64273 510.891759 939.64273z" p-id="7945" fill="#1890ff"></path><path d="M665.479557 418.5834 509.818311 418.5834c-8.069793 0-14.634302 6.567579-14.634302 14.637372l0 155.658176c0 8.071839 6.564509 14.637372 14.634302 14.637372l155.659199 0c8.071839 0 14.638395-6.566556 14.638395-14.637372L680.115905 433.221796C680.115905 425.152003 673.54935 418.5834 665.479557 418.5834L665.479557 418.5834 665.479557 418.5834zM569.001225 572.694337c0 5.128811-4.146437 9.277294-9.279341 9.277294-5.128811 0-9.278317-4.148483-9.278317-9.277294l0-74.251098-27.972075 0c-5.128811 0-9.277294-4.14746-9.277294-9.276271 0-5.131881 4.149507-9.279341 9.277294-9.279341l27.972075 0 0-30.410614c0-5.131881 4.149507-9.279341 9.278317-9.279341 5.131881 0 9.279341 4.14746 9.279341 9.279341L569.001225 572.694337 569.001225 572.694337 569.001225 572.694337zM651.41319 548.323277l-27.972075 0 0 24.37106c0 5.128811-4.148483 9.276271-9.277294 9.276271-5.131881 0-9.279341-4.146437-9.279341-9.276271L604.88448 449.477015c0-5.131881 4.14746-9.279341 9.279341-9.279341 5.128811 0 9.277294 4.14746 9.277294 9.279341l0 80.289628 27.972075 0c5.130857 0 9.278317 4.15053 9.278317 9.279341S656.542001 548.323277 651.41319 548.323277L651.41319 548.323277 651.41319 548.323277zM730.313168 332.845691 286.452058 332.845691c-19.445888 0-35.268248 16.618493-35.268248 37.044708l0 197.87979c0 2.328022 0.935302 4.582365 2.601244 6.225795l114.577548 112.77653c1.619894 1.596358 3.828188 2.484587 6.110161 2.484587l355.840404 0c19.469424 0 35.291784-16.620539 35.291784-37.046754L765.604952 369.889375C765.604952 349.464183 749.782591 332.845691 730.313168 332.845691L730.313168 332.845691 730.313168 332.845691zM697.532577 588.878948c0 17.670451-14.386662 32.055067-32.05302 32.055067L509.818311 620.934015c-17.666358 0-32.050973-14.384615-32.050973-32.055067L477.767338 433.221796c0-17.670451 14.384615-32.055067 32.050973-32.055067l155.659199 0c17.668405 0 32.055067 14.384615 32.055067 32.055067L697.532577 588.878948 697.532577 588.878948 697.532577 588.878948zM697.532577 588.878948" p-id="7946" fill="#1890ff"></path></svg>