<?xml version="1.0" standalone="no"?><!DOCTYPE svg PUBLIC "-//W3C//DTD SVG 1.1//EN" "http://www.w3.org/Graphics/SVG/1.1/DTD/svg11.dtd"><svg t="1566544735049" class="icon" viewBox="0 0 1024 1024" version="1.1" xmlns="http://www.w3.org/2000/svg" p-id="1369" xmlns:xlink="http://www.w3.org/1999/xlink" width="64" height="64"><defs><style type="text/css"></style></defs><path d="M513.7 566.1c13.2 0 23.9-10.7 23.9-23.9v-223c0-13.2-10.7-23.9-23.9-23.9s-23.9 10.7-23.9 23.9v199.2H338.4c-13.2 0-23.9 10.7-23.9 23.9s10.7 23.9 23.9 23.9h175.3z" fill="#707070" p-id="1370"></path><path d="M698.7 807.4c-54.3 36.8-117.8 56.2-183.7 56.2-180.8 0-328-147.1-328-328 0-65 19-127.8 54.8-181.6 7.3-11 4.4-25.8-6.6-33.1-11-7.3-25.8-4.4-33.1 6.6-41.1 61.7-62.8 133.7-62.8 208.1 0 207.2 168.6 375.8 375.8 375.8 75.5 0 148.3-22.3 210.5-64.4 10.9-7.4 13.8-22.3 6.4-33.2-7.5-11-22.4-13.8-33.3-6.4zM545.6 161.2V128h63.7c17.6 0 31.9-14.3 31.9-31.9s-14.3-31.9-31.9-31.9H418.1c-17.6 0-31.9 14.3-31.9 31.9s14.3 31.9 31.9 31.9h63.7v33.4c-68.1 5.9-132.6 29.9-188.2 70.6-10.7 7.8-13 22.7-5.2 33.4 7.8 10.6 22.7 13 33.4 5.2 56.4-41.1 123.2-62.9 193.2-62.9 180.8 0 328 147.1 328 328 0 70-21.8 136.8-62.9 193.2-7.8 10.7-5.5 25.6 5.2 33.4 4.2 3.1 9.2 4.6 14.1 4.6 7.4 0 14.6-3.4 19.3-9.8 47.2-64.6 72.1-141.1 72.1-221.4 0-197-152.3-358.9-345.2-374.5z" fill="#707070" p-id="1371"></path></svg>