<?xml version="1.0" standalone="no"?><!DOCTYPE svg PUBLIC "-//W3C//DTD SVG 1.1//EN" "http://www.w3.org/Graphics/SVG/1.1/DTD/svg11.dtd"><svg t="1565150187626" class="icon" viewBox="0 0 1024 1024" version="1.1" xmlns="http://www.w3.org/2000/svg" p-id="6219" xmlns:xlink="http://www.w3.org/1999/xlink" width="64" height="64"><defs><style type="text/css"></style></defs><path d="M595 960 64 960 64 798.5c0-157.5 123.2-283.9 280.6-287.9 4.9-0.1 10-0.1 14.9 0 37.1 0.9 73 8.8 106.8 23.5 16.2 7 35.1-0.4 42.1-16.7 7-16.2-0.4-35.1-16.7-42.1-4.8-2.1-9.6-4-14.4-5.9 75.4-43.4 126.2-124.8 126.2-218 0-138.9-112.6-251.4-251.4-251.4S100.6 112.5 100.6 251.4c0 93.2 50.7 174.6 126.1 218-47.2 17.9-90.3 46.1-126.5 83.2C35.6 618.7 0 706 0 798.5L0 968.2c0 30.7 25 55.7 55.7 55.7L595 1023.9c17.7 0 32-14.3 32-32S612.7 960 595 960zM164.6 251.4c0-50.1 19.5-97.1 54.9-132.5 35.4-35.4 82.5-54.9 132.5-54.9s97.1 19.5 132.5 54.9c35.4 35.4 54.9 82.5 54.9 132.5s-19.5 97.1-54.9 132.5C449.1 419.3 402.1 438.8 352 438.8s-97.1-19.5-132.5-54.9C184.1 348.5 164.6 301.5 164.6 251.4z" p-id="6220" fill="#8b95a2"></path><path d="M1008.2 702.6l-414-137.8c-2.2-0.7-4.6-1.1-7-1.1-2.4 0-4.9 0.4-7.4 1.1-12.2 4-18.9 17-14.9 29.6l137.6 412.5c1.7 5.8 5.6 11.1 11.4 14.2 3.5 1.9 7.3 2.8 11 2.8 8.4 0 16.5-4.6 20.5-12.4l63.5-120.9 115.3 115.5 1.3 1.1c4.5 4.5 10.4 6.7 16.4 6.7s11.9-2.2 16.4-6.7l49.1-49.3c9.1-9.1 9.1-23.6 0-32.8l-116.6-116.4 120.7-63.5c5.3-3 9.3-7.3 11.2-13.4C1026.9 719.6 1020.1 706.5 1008.2 702.6zM861 752.1l-71.3 37.5-37.4 71.2-18.9 36.1-82-245.7 245.8 81.8L861 752.1z" p-id="6221" fill="#8b95a2"></path></svg>