<svg class="icon" viewBox="0 0 1024 1024" xmlns="http://www.w3.org/2000/svg" data-spm-anchor-id="a313x.7781069.0.i8" width="200" height="200"><defs><style/></defs><path d="M379.94 415.73L512 339.49l132.06 76.24v152.5L512 644.47l-132.06-76.24v-152.5z" fill="#fff" data-spm-anchor-id="a313x.7781069.0.i7" class="selected"/><path d="M512 68.82L128 290.54v443.39l384 221.72 384-221.72V290.54zM339.88 782.37L512 714l172.12 68.42L512 881.74zm72.06-232.61V434.21L512 376.45l100.06 57.76v115.55L512 607.52zM832 697l-77.23 44.6-205.47-81.7 126.76-73.2V397.24L512 302.54l-164.06 94.7V586.7l126.76 73.2-205.47 81.69L192 697V327.48l320-184.75 320 184.75z" data-spm-anchor-id="a313x.7781069.0.i6" fill="#1890ff"/></svg>