<svg class="icon" viewBox="0 0 1024 1024" xmlns="http://www.w3.org/2000/svg" width="200" height="200"><defs><style/></defs><path d="M896 426.667a21.333 21.333 0 1142.667 0V896a85.333 85.333 0 01-85.334 85.333H170.667A85.333 85.333 0 0185.333 896V128a85.333 85.333 0 0185.334-85.333h384a21.333 21.333 0 110 42.666h-384A42.667 42.667 0 00128 128v768a42.667 42.667 0 0042.667 42.667h682.666A42.667 42.667 0 00896 896V426.667zm-211.157-85.334c-24.747 0-44.843-20.053-44.843-44.842V67.115c0-.555 0-1.067.085-1.536A21.333 21.333 0 01676.48 49.92l255.872 255.019a21.29 21.29 0 01-16.17 36.394h-231.34zm-3.115-225.92v184.491h185.13l-185.13-184.49zM277.333 298.667h256a21.333 21.333 0 110 42.666h-256a21.333 21.333 0 010-42.666zm0 213.333h469.334a21.333 21.333 0 110 42.667H277.333a21.333 21.333 0 110-42.667zm0 213.333h469.334a21.333 21.333 0 110 42.667H277.333a21.333 21.333 0 110-42.667z" fill="#1296db"/></svg>