<svg class="icon" viewBox="0 0 1024 1024" xmlns="http://www.w3.org/2000/svg" width="200" height="200"><defs><style/></defs><path d="M830.905 268.495h-85.791C708.08 154.44 619.199 83.831 511.984 83.831s-196.064 70.61-233.128 184.664h-85.76c-48.206 0-87.413 39.988-87.413 89.203v493.345c0 49.152 39.206 89.126 87.412 89.126h637.81c46.276 0 83.831-36.91 86.83-83.31.122-1.04.58-1.898.58-2.939V357.698c0-49.216-39.206-89.203-87.41-89.203m-318.92-120.162c75.719 0 136.78 43.63 168.947 120.161H343.068c32.167-76.531 93.197-120.16 168.916-120.16m314.727 733.622H197.29c-18.946 0-34.31-15.794-34.31-35.198V361.952c0-19.405 15.364-35.167 34.31-35.167h68.008c-3.092 19.939-4.623 39.834-4.623 59.36 0 15.366 1.01 30.974 3.03 47.518-16.069 10.497-25.863 28.387-25.863 47.914 0 31.494 25.16 57.142 56.102 57.142 30.883 0 56.071-25.648 56.071-57.142 0-19.388-9.825-37.386-25.893-47.914-2.54-16.772-3.764-32.352-3.764-47.517a327.51 327.51 0 015.448-59.361h372.357a325.91 325.91 0 015.449 59.36c0 15.396-1.255 31.158-3.796 48.084-15.579 10.56-25.067 28.387-25.067 47.348 0 31.494 25.13 57.142 56.042 57.142 30.943 0 56.101-25.648 56.101-57.142 0-19.894-10.04-37.983-26.536-48.389 1.957-16.16 2.907-31.616 2.907-47.042 0-19.62-1.529-39.513-4.56-59.361h68.008c18.883 0 34.248 15.762 34.248 35.167V846.88c-.06 19.343-15.392 35.075-34.247 35.075" fill="#1296db"/></svg>