<?xml version="1.0" standalone="no"?><!DOCTYPE svg PUBLIC "-//W3C//DTD SVG 1.1//EN" "http://www.w3.org/Graphics/SVG/1.1/DTD/svg11.dtd"><svg t="1571205458785" class="icon" viewBox="0 0 1024 1024" version="1.1" xmlns="http://www.w3.org/2000/svg" p-id="4144" xmlns:xlink="http://www.w3.org/1999/xlink" width="200" height="200"><defs><style type="text/css"></style></defs><path d="M423.72 535.28c17.53 17.53 45.96 17.53 63.49 0l315.76-181.07c17.53-17.53 17.53-45.96 0-63.49L497.53 119.96c-17.53-17.53-45.96-17.53-63.49 0L118.28 301.03c-17.53 17.53-17.53 45.96 0 63.49l305.44 170.76z" p-id="4145" fill="#ffffff"></path><path d="M93.83 522.19l301.84 183.53c16.3 14.27 36.71 21.4 57.12 21.4 20.48 0 40.96-7.18 57.29-21.55l95.23-59.13a199.17 199.17 0 0 1-2.23-29.7c0-27.45 5.62-53.59 15.75-77.34l-160.52 99.66-3.42 3.42a2.997 2.997 0 0 1-4.23 0l-3.56-3.56-309.73-188.34c-19.77-12.02-45.55-5.74-57.58 14.03s-5.73 45.56 14.04 57.58z" p-id="4146" fill="#ffffff"></path><path d="M632.78 720.82l-174.45 108.3-3.42 3.42a2.997 2.997 0 0 1-4.23 0l-3.56-3.56-309.75-188.33c-19.77-12.02-45.55-5.74-57.58 14.03s-5.74 45.55 14.03 57.58l301.84 183.53c16.3 14.27 36.71 21.4 57.12 21.4 20.48 0 40.96-7.18 57.29-21.55l182.8-113.49a198.357 198.357 0 0 1-60.09-61.33zM941.41 745.77L876.63 681c12.22-19.69 19.29-42.9 19.29-67.77 0-71.09-57.63-128.72-128.72-128.72s-128.72 57.63-128.72 128.72 57.63 128.72 128.72 128.72c24.19 0 46.81-6.68 66.14-18.29l65.09 65.09c11.87 11.87 31.11 11.87 42.98 0 11.87-11.87 11.87-31.11 0-42.98z m-174.2-54.71c-42.92 0-77.84-34.92-77.84-77.84s34.92-77.84 77.84-77.84 77.84 34.92 77.84 77.84-34.92 77.84-77.84 77.84z" p-id="4147" fill="#ffffff"></path></svg>