<?xml version="1.0" standalone="no"?><!DOCTYPE svg PUBLIC "-//W3C//DTD SVG 1.1//EN" "http://www.w3.org/Graphics/SVG/1.1/DTD/svg11.dtd"><svg t="1566536969233" class="icon" viewBox="0 0 1024 1024" version="1.1" xmlns="http://www.w3.org/2000/svg" p-id="6603" xmlns:xlink="http://www.w3.org/1999/xlink" width="64" height="64"><defs><style type="text/css"></style></defs><path d="M286.487273 759.854545c-5.818182 0-11.403636-2.094545-16.058182-6.283636a354.816 354.816 0 0 1-111.010909-257.163636c0-30.487273 3.956364-60.741818 11.636363-90.065455 3.258182-12.567273 16.058182-19.781818 28.392728-16.523636s19.781818 16.058182 16.523636 28.392727c-6.749091 25.367273-10.007273 51.898182-10.007273 78.429091 0 85.410909 34.210909 164.770909 96.349091 223.185455a23.179636 23.179636 0 0 1-15.825454 40.02909zM510.370909 848.756364c-6.516364 0-13.032727-2.792727-17.454545-7.68s-6.981818-11.170909-6.283637-17.687273l4.189091-53.527273-89.832727 43.054546c-6.981818 10.705455-20.712727 13.265455-31.650909 6.283636-10.705455-6.981818-13.498182-21.876364-6.516364-32.814545 4.421818-6.749091 10.472727-12.101818 18.152727-15.592728l92.16-44.218182c14.429091-6.981818 31.185455-5.818182 44.683637 3.49091 13.265455 9.076364 20.712727 24.669091 19.549091 40.727272l-2.327273 30.021818C691.432727 788.247273 814.545455 656.523636 814.545455 496.407273c0-90.298182-39.563636-175.476364-108.218182-233.890909a23.505455 23.505455 0 0 1-2.792728-32.814546c8.378182-9.774545 23.04-10.938182 32.814546-2.792727 79.127273 67.258182 124.741818 165.469091 124.741818 269.265454 0 194.327273-157.323636 352.581818-350.72 352.581819z m-19.549091-81.221819zM261.818182 305.570909a23.249455 23.249455 0 0 1-17.687273-38.4c66.792727-78.196364 163.84-123.112727 266.24-123.112727 6.516364 0 13.032727 2.792727 17.454546 7.68s6.981818 11.170909 6.283636 17.687273l-4.189091 53.527272 89.832727-43.054545c6.981818-10.705455 20.945455-13.265455 31.650909-6.283637 10.705455 6.981818 13.498182 21.876364 6.516364 32.814546-4.421818 6.749091-10.472727 12.101818-18.152727 15.592727l-92.16 44.218182c-14.661818 6.981818-31.185455 5.585455-44.683637-3.490909-13.265455-9.076364-20.712727-24.669091-19.549091-40.727273l2.327273-30.021818c-79.825455 6.516364-153.832727 44.218182-206.196363 105.658182-4.654545 5.12-11.170909 7.912727-17.687273 7.912727z" fill="#55ABCE" p-id="6604"></path><path d="M528.290909 270.429091c-8.843636 0-17.687273-2.792727-25.367273-7.912727-13.265455-9.076364-20.712727-24.669091-19.549091-40.727273l7.912728-102.4c1.163636-16.290909 10.705455-30.254545 25.367272-37.236364 14.661818-6.981818 31.650909-5.818182 45.149091 3.258182l84.48 58.181818c20.48 14.661818 25.6 42.821818 11.403637 63.069091-3.956364 6.050909-10.007273 11.403636-17.687273 15.127273l-92.16 44.218182c-6.283636 2.792727-13.032727 4.421818-19.549091 4.421818z m9.309091-145.454546l-7.68 98.676364 89.832727-43.985454-42.123636-26.763637-40.029091-27.927273zM506.647273 223.418182zM484.305455 915.316364c-8.843636 0-17.687273-2.56-25.367273-7.912728 0 0-0.232727 0-0.232727-0.232727l-84.247273-58.181818a45.777455 45.777455 0 0 1-11.403637-63.069091c3.956364-6.050909 10.007273-11.403636 17.687273-14.894545l92.16-44.218182c14.429091-6.981818 31.185455-5.818182 44.683637 3.490909 13.265455 9.076364 20.712727 24.669091 19.54909 40.727273l-7.912727 102.4c-1.163636 16.290909-10.705455 30.254545-25.367273 37.236363-6.050909 3.025455-12.8 4.654545-19.54909 4.654546z m6.283636-145.454546l-89.832727 43.054546 42.123636 26.763636 40.727273 28.392727 6.981818-98.210909z m0.232727-2.327273z" fill="#55ABCE" p-id="6605"></path></svg>