<svg class="icon" viewBox="0 0 1024 1024" xmlns="http://www.w3.org/2000/svg" width="64" height="64"><defs><style/></defs><path d="M286.323 491.645c7.066-83.005 58.784-153.081 131.099-186.362 25.483-55.268 73.105-123.296 153.952-207.09 8.795-9.059 17.027-17.57 24.958-25.746-27.325-5.242-55.516-8.08-84.344-8.08-136.774 0-259.118 61.545-341.054 158.4a8982.95 8982.95 0 0 1 17.928 50.156s34.88 129.59 97.46 218.722zm92.686 202.58c-48.485-35.254-82.35-89.15-91.145-151.277-41.495-47.77-84.005-128.332-122.906-259.013-4.097-13.85-7.931-26.798-11.577-39.182-55.326 74.36-88.064 166.498-88.064 266.267 0 56.114 10.449 109.803 29.355 159.3 30.144 4.174 51.906 7.35 51.906 7.35s125.688 28.45 232.431 16.554zm78.518-402.96c17.477-4.323 35.594-6.86 54.461-6.86 42.961 0 82.99 12.178 117.194 32.906 61.227-10.167 147.638-7.16 269.94 18.717 9.06 1.879 17.743 3.74 26.16 5.543-52.995-129.16-164.738-228.006-302.003-263.223-17.852 20.729-30.519 35.237-30.519 35.237s-86.41 84.883-135.233 177.68zm272.384 281.45c-13.907 49.141-43.976 91.386-84.08 120.833-21.648 60.436-75.81 138.386-184.696 238.304-7.554 6.916-14.733 13.494-21.725 19.864 23.642 3.87 47.884 5.956 72.578 5.956 105.655 0 202.663-36.757 279.15-98.076-1.917-15.673-3.043-25.577-3.043-25.577s-5.977-159.414-58.184-261.304zM601.367 719.256c-27.474 11.801-57.656 18.379-89.379 18.379-32.55 0-63.445-6.991-91.484-19.375-61.303 12.008-149.291 10.655-275.28-14.283-14.057-2.8-27.211-5.412-39.728-7.95 56.717 124.518 168.91 218.31 305.086 249.938 17.74-18.23 30.105-30.802 30.105-30.802s110.39-95.913 160.68-195.907zm62.206-376.351c45.93 41.493 75.06 101.308 75.06 168.115 0 5.017-.452 9.922-.753 14.864 36.307 53.539 65.85 146.203 75.962 302.686.263 3.759.488 7.291.677 10.918 88.627-81.595 144.141-198.54 144.141-328.468 0-49.968-8.343-97.945-23.453-142.803-22.626-3.494-37.848-5.919-37.848-5.919s-126.593-30.349-233.786-19.393z" fill="#1296db"/></svg>